<svg version="1.2" xmlns="http://www.w3.org/2000/svg" viewBox="0 0 640 640" width="640" height="640"><defs><clipPath clipPathUnits="userSpaceOnUse" id="cp1"><path d="m522.26 393.12l-166.69-278.5-260.36 155.83 166.69 278.5z"/></clipPath></defs><style>.a{opacity:.3;fill:#4e5ba6}.b{fill:#4e5ba6}.c{fill:#363f72}.d{fill:#b3b8db}.e{fill:#fff}.f{fill:#667085}.g{fill:#d0d5dd}.h{fill:#475467}</style><path class="a" d="m326.7 589.1c-31.5 6.7-64.1 8.4-96.1 5-32.3-3.4-64.1-12.1-93.3-26.2-28.3-13.7-54.1-32.5-75-56-20.9-23.5-36.1-49.8-46.2-78.6-10.1-28.9-14.5-59.1-12.1-89.3 2.5-30.5 12.1-60.9 29.6-86.2 18.5-26.8 45.8-45.8 78.5-50.2 34.2-4.7 69.4 5.4 99 22.5 30.7 17.7 56.5 42.3 81.2 67.4 24.4 24.8 48.2 50.4 75.8 71.7 28.4 21.9 60.7 37.8 96.3 43.8 17.3 2.9 35.9 4.2 53.3 0.9 15.3-2.9 28.7-10.7 39.4-21.9 22.5-23.3 33.2-56.9 38.3-88.3 5.8-35.9 4-72.6-1.8-108.3-5.3-32.4-13.5-65.1-29.2-94.1-15-27.5-37.2-49.6-65.2-63.6-27.4-13.7-58.1-19.8-88.4-22.2-33.8-2.7-68.2-1.2-101.9 2.5-36.2 3.9-72.2 11.5-105.8 26-28.9 12.4-55.9 30.1-77.6 53-10.3 10.9-19.3 23-26.7 36-0.6 1.1 1.1 2.1 1.7 1 15.8-27.9 39.1-50.9 65.9-68.3 29.2-18.9 62.1-31 95.9-38.4 35.8-7.7 72.7-10.7 109.2-11.1 31.4-0.3 63.3 1.9 93.6 10.5 29.9 8.5 57.9 23.7 78.4 47.5 21.6 25 33.8 56.7 41.5 88.5 8.6 35 13.2 71.4 11.8 107.5-1.4 34.6-8.5 71.2-26.6 101.3-7.8 13.1-18.2 25.1-31.6 32.8-16 9.2-34.8 10.2-52.9 9.1-36.9-2.1-71.9-14.9-102.4-35.5-29.1-19.8-53.9-45.1-78.3-70.2-24.5-25.1-48.8-50-77.7-69.7-27.6-18.9-59.7-32.1-93.5-33.4-16.2-0.6-32.6 1.8-47.8 7.7-13.9 5.4-26.4 13.9-37.1 24.3-21.6 21-35.4 49.3-42.2 78.4-6.9 29.1-6.7 58.8-1 87.6 5.8 28.9 17.5 57.6 33.8 82.6 16.4 25.2 37.6 47 62.3 64.2 25.9 18 55.2 31 85.7 38.8 30.8 8 62.8 10.9 94.5 8.9q5.7-0.3 11.4-0.9 5.7-0.5 11.3-1.3 5.7-0.8 11.3-1.8 5.7-1 11.3-2.2c1.2-0.2 0.7-2.1-0.6-1.8q0 0 0 0z"/><path class="b" d="m163.5 395.3c20.5 19.9 46.6 32.4 73.1 42.2 26.9 10 54.6 18.2 82.9 23.3 28.5 5.1 57.5 6.8 86.3 3 23.7-3.2 47-10.6 67.9-22.1 20.9-11.5 39.6-27.2 53.4-46.7 7.5-10.6 14.6-22.9 16.5-35.9 1.1-6.9 0.5-13.8-2.3-20.3-2.4-5.5-6.7-10.6-12-13.5-5.9-3.2-12.7-3.6-19.1-1.6-6.4 1.9-13.3 5.4-17.3 10.8-8.1 10.6 3.3 24.3 15.1 23.5 12.9-0.9 21.7-12.9 27.1-23.5 5.5-11 8.3-23.1 8.6-35.3 0.7-24.9-8.4-49.2-23.6-68.7-16.4-20.9-39-36.2-62.7-47.7-5.8-2.9-11.9-5.5-17.9-8-2.1-0.9-4.6 0.9-5.2 2.9-0.7 2.4 0.8 4.3 2.9 5.2 22.5 9.2 44.6 21.2 62.5 37.9 17.1 15.9 29.7 35.9 34.1 59.1 3.9 20.8 0.9 44.8-12.9 61.4-3.3 3.9-7.5 7.7-12.6 8.3-0.4 0-1 0.1-1.4 0-0.2 0-1.4-0.1-0.8 0q-0.2-0.1-0.4-0.1-0.2-0.1-0.4-0.1-0.3-0.1-0.5-0.1-0.2-0.1-0.4-0.2-0.1 0-0.2 0-0.1-0.1-0.2-0.1-0.1 0-0.2-0.1-0.1 0-0.2 0c0.6 0.2-0.2-0.2-0.3-0.2q-0.8-0.4-1.5-0.9c-0.7-0.4-0.2-0.1-0.8-0.6q-0.1-0.2-0.3-0.3-0.1-0.1-0.2-0.3-0.1-0.1-0.3-0.2-0.1-0.2-0.2-0.3c-0.5-0.6-0.3-0.3-0.1-0.1q-0.4-0.5-0.7-1c-0.3-0.5-0.6-1.3-0.7-1.9 0.1 0.5 0-0.3 0-0.4q0-0.1 0-0.2 0-0.1 0-0.2 0-0.1 0-0.2 0-0.1 0-0.2c0-0.7-0.1 0.6 0-0.1 0.1-0.4 0.2-0.8 0.4-1.1 0.9-2.2 3.2-3.8 5.2-5.1 4.7-2.8 10.2-5.2 15.8-4.7 2.3 0.2 4.5 1.1 6.5 2.5 1.9 1.2 3.7 3 5 4.8 3.2 4.5 4.6 9.8 4.4 15.5-0.3 12.1-7 23.7-13.5 33.6-12 18.1-28.7 33-47.4 44.1-19.2 11.4-40.4 19-62.4 22.9-25.8 4.6-52.5 4-78.4 0.4-26.8-3.8-53.1-10.9-78.7-19.5-25-8.3-49.9-18-71.4-33.6q-1.9-1.4-3.8-2.8-1.8-1.5-3.6-3-1.8-1.5-3.6-3.1-1.8-1.6-3.4-3.2c-1.7-1.6-4.3-1.8-6-0.2-1.5 1.6-1.7 4.4-0.1 6z"/><path class="b" d="m336.1 411.5q-3-0.8-6-1.7-2.9-1-5.9-2-2.9-1.1-5.8-2.3-2.9-1.2-5.7-2.5l-1.2-0.6-0.6-0.3q-0.6-0.3-1.2-0.6-0.7-0.3-1.3-0.6-0.6-0.3-1.2-0.6-0.6-0.4-1.2-0.7-1.2-0.7-2.4-1.3-1.2-0.7-2.4-1.4-1.2-0.7-2.4-1.4-1.2-0.8-2.3-1.5-1.2-0.7-2.3-1.5-1.2-0.8-2.3-1.6-1.1-0.7-2.2-1.5-1.1-0.8-2.2-1.7-0.6-0.4-1.1-0.8-0.6-0.4-1.1-0.8-0.5-0.4-1.1-0.9-0.5-0.4-1-0.8c-0.7-0.6 0.2 0.2-0.4-0.3q-0.4-0.4-0.8-0.7-0.4-0.3-0.8-0.7-0.4-0.3-0.8-0.7-0.4-0.3-0.8-0.7-2.1-1.7-4-3.6-2-1.8-3.9-3.7-1.9-1.9-3.7-3.9-1.8-2-3.5-4.1-0.5-0.5-0.9-1-0.4-0.5-0.9-1-0.4-0.5-0.8-1-0.4-0.6-0.8-1.1l-0.8-0.9q0-0.1-0.1-0.2-0.1-0.1-0.1-0.2-0.1 0-0.1-0.1-0.1-0.1-0.2-0.2c0 0-0.4-0.5-0.1-0.2 0.2 0.3-0.4-0.5-0.5-0.7l-0.9-1.1q-0.7-1.1-1.5-2.2-0.7-1-1.4-2.1-0.8-1.1-1.5-2.2-0.7-1.1-1.3-2.2-0.7-1.1-1.4-2.2-0.6-1.1-1.2-2.3-0.7-1.1-1.3-2.2-0.6-1.2-1.1-2.3-0.3-0.6-0.6-1.2-0.3-0.5-0.6-1.1-0.2-0.6-0.5-1.2-0.3-0.6-0.5-1.1l-1-2.4c-0.2-0.4 0 0.1 0 0.1l-0.2-0.5-0.5-1.3c-2.5-6.2-4.3-12.6-5.5-19q-0.1-0.6-0.2-1.2-0.1-0.6-0.2-1.2-0.1-0.6-0.2-1.2-0.1-0.6-0.2-1.2l-0.1-0.8 0.1 0.1q-0.1-0.1-0.1-0.2 0-0.2 0-0.3 0-0.2 0-0.3-0.1-0.1-0.1-0.3 0-0.3 0-0.6 0-0.3-0.1-0.6 0-0.3 0-0.6-0.1-0.3-0.1-0.6c-0.3-4.1-0.3-8.1-0.1-12.2 0.7-16.6 4.9-32.3 10.3-47.9 5.1-15.1 11.6-29 21.9-41.4 4.8-5.7 9.9-10.5 16.2-14.9q1-0.8 2.1-1.6 1.1-0.7 2.3-1.4 1.1-0.7 2.2-1.4 1.2-0.7 2.3-1.3l1.1-0.6c0.4-0.2 0 0-0.1 0q0.3-0.1 0.6-0.3 1.3-0.6 2.6-1.3 0.6-0.3 1.2-0.6 0.6-0.3 1.2-0.5 0.6-0.3 1.2-0.6 0.7-0.3 1.3-0.5 1.2-0.6 2.5-1.1 1.3-0.5 2.6-1 1.3-0.5 2.5-0.9 1.3-0.5 2.6-0.9 0.7-0.2 1.4-0.5 0.6-0.2 1.3-0.4 0.7-0.2 1.3-0.4 0.7-0.2 1.4-0.3l2.5-0.7 1.4-0.4c-0.6 0.2 0.6-0.1 0.8-0.2 7.3-1.7 14.9-2.8 22.6-3.4q5.7-0.5 11.6-0.5c0.5 0 0 0-0.1 0q0.3 0 0.7 0h1.3l3.1 0.1q0.8 0 1.6 0 0.8 0.1 1.7 0.1 0.8 0 1.6 0.1 0.8 0 1.6 0.1c9.3 0.6 18.7 2 27.9 3.9 8.7 1.8 18 4.4 26.8 7.4 8.8 3 18 6.6 26.7 10.5q1.5 0.6 3 1.3 1.5 0.7 3 1.4 1.5 0.8 3 1.5 1.5 0.7 3 1.4c2.2 1.1 5 1.3 6.3-0.6 1.1-1.6 0.9-4.5-1.4-5.7-17.7-8.8-36-16.3-55.1-21.6-18.7-5.1-37.7-8-56.7-7.9-16.1 0.1-32.1 2.5-46.8 7.4-14.5 4.8-27.9 12.1-38.5 21.9-12.7 11.6-21.4 26-27.8 41.3-6.5 15.5-11.2 32-13.7 48.7-2.2 14.9-1.8 30.4 2.6 45.6 3.8 13.3 10.3 26.3 18.9 38.1 8.8 12 19.5 22.9 31.9 32.3q18.6 14 40.5 21.7 1.3 0.4 2.6 0.9 1.3 0.4 2.6 0.8 1.4 0.4 2.7 0.8 1.4 0.4 2.7 0.7c2.3 0.7 5 0.1 5.7-2.1 0.5-1.9-0.6-4.6-3.1-5.3z"/><path class="c" d="m358.6 457.1c9.1 0.5 23.2 0.7 31.2 0 8.1-0.8 12.6 7.3 0 8.3-12.6 0.9-32.6 0-32.6 0 0 0-7.7-8.8 1.4-8.3z"/><path class="b" d="m9 588c28.7-23.6 35.2-65.1 66.9-85.9 10-6.6 21.6-10.1 33.4-12.4 11.8-2.2 24.5-4 36.7-1.8 19.6 3.6 36.3 19.2 42.1 37.9 2.7 8.8 3.9 19.6-1.3 27.7-2.4 3.7-6.2 6.7-11 6.5-5.1-0.1-9-3.3-11.2-7.7-4.3-8.6-2.2-19.5 0.7-28 3.2-9.5 8.6-18.3 15.8-25.2 17.5-16.8 43.2-20.2 66.5-23.3 13.1-1.8 26.3-3 39.5-3.8 12.6-0.8 25.2-0.9 37.8-1.5 11.7-0.6 23.6-1.7 34.8-5.4 10-3.3 19-8.6 26.4-16.1 15.6-15.8 22.3-38 21.5-60-0.3-5.8-1-11.7-2.1-17.5-0.4-2 1.6-3.8 3.4-3.9 2.2-0.1 3.6 1.5 4 3.5 4.4 22 2.5 45.6-8.3 65.4-4.9 8.9-11.3 16.7-19.2 23.1-8.3 6.8-18.3 11.4-28.7 14.1-11.2 2.9-22.7 3.8-34.2 4.3l-36.4 1.5c-12.7 0.8-25.4 2-38 3.6-11.5 1.6-23.2 3.3-34.4 6.5-10.1 2.9-19.8 7.4-27.3 14.8-6.7 6.5-11.9 14.8-14.5 23.7-1.3 4.4-2.3 9.1-2.2 13.7 0.1 3.2 0.8 7.2 3.2 9.6 2.3 2.3 5.3 1.2 7.1-1.2 2.2-2.9 3-6.9 2.9-10.4-0.4-17.9-12.4-34.6-29-41.8-10.1-4.5-21.4-4.2-32.2-2.8-11.2 1.4-22.6 3.7-32.9 8.3-16.6 7.4-27.6 21.8-36.7 36.8-9.2 15.2-17.2 31.4-29.2 44.7q-4.5 4.9-9.6 9.1c-1.6 1.3-4.2 0.5-5.2-1-1.3-1.8-0.6-3.9 0.9-5.2q0 0.1 0 0.1zm150.1-239.1l17.2 33.2c3.2 6.2 0.8 13.9-5.4 17.1-6.3 3.3-14 0.9-17.2-5.4l-17.2-33.2c-0.8-1.5-1.3-3.1-1.4-4.8-0.2-1.6 0-3.3 0.5-4.9 0.5-1.6 1.3-3.1 2.4-4.4 1.1-1.2 2.4-2.3 3.9-3.1q1.1-0.5 2.3-0.9 1.2-0.3 2.5-0.4 1.2-0.2 2.5 0 1.2 0.1 2.4 0.5 1.2 0.4 2.3 1 1.1 0.6 2.1 1.4 0.9 0.8 1.7 1.8 0.8 1 1.4 2.1z"/><path class="d" d="m70.8 246.6q0.7 0.2 1.4 0.6 0.7 0.4 1.3 0.9 0.6 0.4 1.1 1.1 0.5 0.6 0.8 1.2l17.4 33.6-13.9 7.2-17.4-33.5q-0.8-1.4-0.9-3-0.1-1.5 0.3-3 0.5-1.5 1.5-2.7 1-1.2 2.4-1.9 0.7-0.4 1.4-0.6 0.8-0.2 1.6-0.3 0.7 0 1.5 0 0.8 0.1 1.5 0.4zm47.3-18.3l17.4 33.5-14 7.3-17.4-33.6q-0.7-1.4-0.8-2.9-0.2-1.6 0.3-3.1 0.5-1.5 1.5-2.7 1-1.2 2.4-1.9 0.7-0.3 1.4-0.5 0.7-0.3 1.5-0.3 0.8-0.1 1.6 0 0.7 0.1 1.5 0.3 0.7 0.3 1.4 0.6 0.7 0.4 1.2 0.9 0.6 0.5 1.1 1.1 0.5 0.6 0.9 1.3z"/><path class="c" d="m188.5 330.7q1.5 2.8 2.4 5.9 0.9 3 1.1 6.2 0.3 3.1-0.1 6.2-0.3 3.2-1.3 6.2-0.9 3-2.4 5.8-1.6 2.8-3.6 5.2-2 2.4-4.5 4.4-2.5 1.9-5.3 3.4l-26.9 14c-15.7 8.1-35.1 2-43.2-13.7q-1.5-2.9-2.4-5.9-0.9-3-1.1-6.2-0.3-3.1 0.1-6.3 0.3-3.1 1.3-6.1 0.9-3 2.5-5.8 1.5-2.8 3.5-5.2 2-2.4 4.5-4.4 2.5-1.9 5.3-3.4l26.9-13.9c15.7-8.2 35.1-2.1 43.2 13.6z"/><path class="c" d="m153.6 251.9l31.1 59.9-93.3 48.4-31.1-59.9q-0.8-1.5-0.9-3.1-0.1-1.6 0.3-3.2 0.5-1.6 1.6-2.8 1.1-1.3 2.5-2l78.6-40.9c4.1-2.1 9.1-0.5 11.2 3.6z"/><path class="b" d="m197.8 310.3q0.8 1.6 1.3 3.4 0.5 1.7 0.6 3.5 0.2 1.8 0 3.6-0.2 1.7-0.7 3.5-0.6 1.7-1.5 3.2-0.8 1.6-2 3-1.1 1.4-2.5 2.5-1.4 1.1-3 1.9l-82.7 43c-8.9 4.6-20 1.1-24.6-7.8q-0.8-1.6-1.3-3.4-0.5-1.7-0.7-3.5-0.1-1.8 0.1-3.5 0.2-1.8 0.7-3.5 0.5-1.7 1.4-3.3 0.9-1.6 2-3 1.2-1.3 2.6-2.5 1.4-1.1 3-1.9l82.7-42.9c8.9-4.7 19.9-1.2 24.6 7.7z"/><path class="e" d="m103.1 268.7l-9.4 5 13.4 25.8 9.5-4.9z"/><path class="f" d="m73.5 159.4h8.4v14.9h-8.4v17.8h-19.4v-17.8h-32.3l-1.1-11.8 33.4-53.8v-0.2h19.4zm-34.4 0h15v-25.7l-1.2 2c0 0-13.8 23.7-13.8 23.7zm109.4-1.5q0 17-7.7 26.1-7.6 9.2-21.4 9.2c-9.2 0-16.5-3.1-21.6-9.2q-7.6-9.3-7.6-26.1v-15.2q0-17 7.6-26.1 7.6-9.2 21.5-9.2 13.9 0 21.5 9.2 7.7 9.3 7.7 26.1zm-19.4-17.7q0-9-2.3-13.4-2.4-4.5-7.5-4.5c-3.4 0-5.7 1.4-7.3 4.1q-2.2 4.2-2.4 12.5v21.4q0 9.3 2.4 13.7 2.3 4.3 7.4 4.3c3.4 0 5.7-1.4 7.3-4.2q2.4-4.2 2.4-13.2v-20.7zm80.5 19.2h8.5v14.9h-8.5v17.8h-19.4v-17.8h-32.3l-1.1-11.8 33.4-53.8v-0.2h19.4zm-34.4 0h15v-25.7l-1.2 2z"/><path class="d" d="m119.8 28.5c0 0-1.6 7.2 6.7 27.6 8.2 20.5 19.7 28.9 19.7 28.9l57.8-12.7c0 0-20.5-15.5-24.4-30.2-4-14.7-6.6-20.4-6.6-20.4l-18.5-7-34.7 13.8zm276.1 137.2l6.7 25c0 0 14.1 9 31.7 8.3 17.6-0.8 23.3-4.7 23.3-4.7l-5.4-41.4c0 0-14.2 23.8-56.3 12.8z"/><path class="g" d="m392 23.1l17.3-15.8c0 0 28.2 1.4 39.4 17.2l12.3 17.3-32.6 26.2c0 0-16.7-42.4-36.4-44.9z"/><path class="d" d="m502 565.1c0 0 19.6-26.6 22.5-48.1 2.9-21.5 2.9-29.4 2.9-29.4l41.6 9.6c0 0 5.1 26.3-3.6 51.4l-8.6 25.1z"/><path class="f" d="m610.2 278.7l-30.7-3.8-2.6 21.1 30.7 3.8z"/><path class="d" d="m601.8 299l-19.1-2.3c0 0-23.1 40.1-6 49.3 6.6 3.5 11.8 4.1 19 2.3 18.8-4.7 6.1-49.3 6.1-49.3zm-3.8-8.1c21.8 0 39.6-17.7 39.6-39.6 0-21.8-17.8-39.5-39.6-39.5-21.9 0-39.6 17.7-39.6 39.5 0 21.9 17.7 39.6 39.6 39.6z"/><path class="e" d="m598 273.4c12.2 0 22-9.9 22-22.1 0-12.1-9.8-22-22-22-12.2 0-22 9.9-22 22 0 12.2 9.8 22.1 22 22.1z"/><g clip-path="url(#cp1)"></g><path class="h" d="m417.4 85.4v8.7h-6.2v-25.8h10.3q3 0 5.2 1.1 2.3 1.1 3.6 3.1 1.2 2 1.2 4.6 0 3.8-2.7 6-2.7 2.3-7.4 2.3h-4q0 0 0 0zm0-4.8h4.1q1.8 0 2.8-0.9 0.9-0.9 0.9-2.6 0-1.8-1-2.9-0.9-1-2.6-1.1h-4.2zm28.9 8.8h-8.5l-1.5 4.8h-6.6l9.4-25.8h5.9l9.5 25.8h-6.7c0 0-1.5-4.8-1.5-4.8zm-7-4.8h5.5l-2.8-9-2.7 9zm37.8 6.4q-1.4 1.6-4.2 2.6-2.8 0.9-6 0.9-5.1 0-8.1-3.1-3.1-3.1-3.3-8.6v-2.2q0-3.8 1.3-6.7 1.4-2.8 3.9-4.3 2.5-1.6 5.8-1.6 4.8 0 7.5 2.2 2.6 2.2 3.1 6.6h-6q-0.3-2.1-1.4-3.1-1-0.9-3-0.9-2.3 0-3.6 2-1.3 2-1.3 5.7v1.5q0 3.9 1.3 5.8 1.3 2 4.2 2 2.4 0 3.6-1.1v-4h-4.3v-4.3h10.5v10.6zm19.6-7.8h-9.8v6.2h11.6v4.8h-17.8v-25.8h17.8v4.8h-11.6v5.4h9.8v4.6q0 0 0 0zm-64 54.5h-6.2l-9.1-16v16h-6.2v-25.8h6.2l9.1 16.1v-16.1h6.2v25.8zm25.8-12.3q0 3.7-1.4 6.6-1.4 2.9-4 4.5-2.5 1.6-5.8 1.6-3.3 0-5.9-1.5-2.5-1.6-4-4.4-1.4-2.8-1.5-6.4v-1.5q0-3.8 1.4-6.7 1.4-2.9 4-4.5 2.6-1.5 5.9-1.5c2.2 0 4.2 0.5 5.9 1.5q2.5 1.6 4 4.5 1.4 2.8 1.4 6.6v1.2zm-6.3-1.1q0-3.9-1.3-5.9-1.3-2-3.7-2-4.6 0-4.9 7.1v1.9q0 3.7 1.2 5.8 1.3 2 3.8 2c1.6 0 2.8-0.6 3.6-2q1.3-2 1.3-5.7zm28.3-7.6h-7.8v21h-6.2v-21h-7.6v-4.8h21.6zm-53.1 55.8h-10v10.2h-6.2v-25.8h17.3v4.8h-11.1v6h10.1v4.8zm25.4-2.1q0 3.7-1.4 6.6-1.4 2.9-4 4.5-2.6 1.6-5.9 1.6-3.3 0-5.8-1.5-2.6-1.5-4-4.4-1.4-2.8-1.5-6.4v-1.5q0-3.8 1.4-6.7 1.4-2.9 4-4.4 2.6-1.6 5.9-1.6c2.2 0 4.1 0.5 5.9 1.5q2.5 1.6 3.9 4.5 1.5 2.9 1.5 6.6v1.2zm-6.3-1.1q0-3.9-1.3-5.9-1.3-2-3.7-2-4.7 0-4.9 7.1v1.9q0 3.7 1.2 5.8 1.3 2 3.8 2c1.6 0 2.7-0.6 3.6-2q1.3-2 1.3-5.7zm29.7-12.4v16.9q0 2.9-1.2 5-1.2 2.1-3.5 3.2-2.3 1.1-5.4 1.1-4.7 0-7.4-2.5-2.7-2.4-2.8-6.7v-17h6.3v17.2q0.1 4.2 3.9 4.2 1.9 0 2.9-1.1 1-1 1-3.4v-16.9h6.2zm25.4 25.8h-6.1l-9.2-16v16h-6.2v-25.8h6.2l9.2 16.1v-16.1h6.2v25.8zm3.9 0v-25.8h8.3q3.4 0 6.1 1.6 2.8 1.5 4.3 4.4 1.5 2.8 1.5 6.3v1.2q0 3.5-1.4 6.3-1.5 2.8-4.3 4.4-2.7 1.6-6 1.6h-8.5zm6.2-21v16.2h2.2q2.6 0 4.1-1.9 1.4-1.9 1.4-5.6v-1.1q0-3.8-1.4-5.7-1.5-1.9-4.2-1.9h-2.1z"/></svg>