<?xml version="1.0" encoding="UTF-8" standalone="no"?>
<!DOCTYPE svg PUBLIC "-//W3C//DTD SVG 1.1//EN" "http://www.w3.org/Graphics/SVG/1.1/DTD/svg11.dtd">
<svg width="100%" height="100%" viewBox="0 0 371 67" version="1.1" xmlns="http://www.w3.org/2000/svg" xmlns:xlink="http://www.w3.org/1999/xlink" xml:space="preserve" xmlns:serif="http://www.serif.com/" style="fill-rule:evenodd;clip-rule:evenodd;stroke-linejoin:round;stroke-miterlimit:2;">
    <g transform="matrix(-2.91012e-17,-0.475259,-0.475259,2.91012e-17,86.7458,70.575)">
        <path d="M84.813,37.36L84.813,63.406C106.072,67.425 120.275,87.061 116.647,107.803C113.864,123.717 101.148,136.231 84.813,139.322L84.813,165.432C120.99,161.213 147.085,129.739 143.252,94.636C139.954,64.423 115.391,40.908 84.813,37.36Z" style="fill-rule:nonzero;"/>
    </g>
    <g transform="matrix(-2.91012e-17,-0.475259,-0.475259,2.91012e-17,86.7458,70.575)">
        <path d="M12.656,108.157C15.84,138.369 39.55,161.884 69.068,165.432L69.068,37.36C34.146,41.579 8.956,73.053 12.656,108.157Z" style="fill-rule:nonzero;"/>
    </g>
    <g transform="matrix(5.69938,0,0,5.69938,-524.335,-94.7774)">
        <g transform="matrix(12,0,0,12,105.635,26.7479)">
            <path d="M0.656,-0.37L0.656,-0.341C0.656,-0.286 0.648,-0.238 0.633,-0.195C0.618,-0.151 0.597,-0.115 0.569,-0.084C0.541,-0.054 0.508,-0.031 0.471,-0.014C0.433,0.002 0.391,0.01 0.346,0.01C0.3,0.01 0.258,0.002 0.22,-0.014C0.182,-0.031 0.149,-0.054 0.121,-0.084C0.094,-0.115 0.072,-0.151 0.057,-0.195C0.042,-0.238 0.034,-0.286 0.034,-0.341L0.034,-0.37C0.034,-0.424 0.042,-0.473 0.057,-0.516C0.072,-0.559 0.093,-0.596 0.121,-0.627C0.148,-0.657 0.181,-0.68 0.219,-0.697C0.257,-0.713 0.299,-0.721 0.345,-0.721C0.39,-0.721 0.432,-0.713 0.47,-0.697C0.508,-0.68 0.541,-0.657 0.568,-0.627C0.596,-0.596 0.618,-0.559 0.633,-0.516C0.648,-0.473 0.656,-0.424 0.656,-0.37ZM0.482,-0.341L0.482,-0.371C0.482,-0.406 0.479,-0.437 0.473,-0.464C0.467,-0.49 0.458,-0.513 0.446,-0.531C0.435,-0.549 0.42,-0.563 0.403,-0.573C0.386,-0.582 0.367,-0.586 0.345,-0.586C0.322,-0.586 0.302,-0.582 0.285,-0.573C0.268,-0.563 0.254,-0.549 0.243,-0.531C0.231,-0.513 0.223,-0.49 0.217,-0.464C0.211,-0.437 0.208,-0.406 0.208,-0.371L0.208,-0.341C0.208,-0.306 0.211,-0.275 0.217,-0.248C0.223,-0.221 0.231,-0.199 0.243,-0.18C0.254,-0.162 0.269,-0.148 0.286,-0.138C0.303,-0.129 0.323,-0.124 0.346,-0.124C0.368,-0.124 0.387,-0.129 0.404,-0.138C0.421,-0.148 0.435,-0.162 0.447,-0.18C0.458,-0.199 0.467,-0.221 0.473,-0.248C0.479,-0.275 0.482,-0.306 0.482,-0.341Z" style="fill-rule:nonzero;"/>
        </g>
        <g transform="matrix(12,0,0,12,113.92,26.7479)">
        </g>
        <g transform="matrix(12,0,0,12,116.674,26.7479)">
            <path d="M0.398,-0.711L0.398,-0L0.227,-0L0.227,-0.711L0.398,-0.711ZM0.612,-0.711L0.612,-0.579L0.018,-0.579L0.018,-0.711L0.612,-0.711Z" style="fill-rule:nonzero;"/>
        </g>
        <g transform="matrix(12,0,0,12,124.01,26.7479)">
        </g>
        <g transform="matrix(12,0,0,12,126.998,26.7479)">
            <path d="M0.44,-0.711L0.611,-0.711L0.611,-0.247C0.611,-0.191 0.6,-0.144 0.577,-0.106C0.554,-0.068 0.521,-0.039 0.479,-0.02C0.438,0 0.389,0.01 0.333,0.01C0.277,0.01 0.228,0 0.186,-0.02C0.144,-0.039 0.111,-0.068 0.087,-0.106C0.064,-0.144 0.052,-0.191 0.052,-0.247L0.052,-0.711L0.224,-0.711L0.224,-0.247C0.224,-0.217 0.228,-0.193 0.236,-0.175C0.245,-0.157 0.257,-0.143 0.273,-0.135C0.29,-0.126 0.309,-0.122 0.333,-0.122C0.356,-0.122 0.376,-0.126 0.392,-0.135C0.408,-0.143 0.42,-0.157 0.428,-0.175C0.436,-0.193 0.44,-0.217 0.44,-0.247L0.44,-0.711Z" style="fill-rule:nonzero;"/>
        </g>
        <g transform="matrix(12,0,0,12,134.973,26.7479)">
        </g>
        <g transform="matrix(12,0,0,12,137.727,26.7479)">
            <path d="M0.398,-0.711L0.398,-0L0.227,-0L0.227,-0.711L0.398,-0.711ZM0.612,-0.711L0.612,-0.579L0.018,-0.579L0.018,-0.711L0.612,-0.711Z" style="fill-rule:nonzero;"/>
        </g>
        <g transform="matrix(12,0,0,12,145.063,26.7479)">
        </g>
        <g transform="matrix(12,0,0,12,148.051,26.7479)">
            <path d="M0.44,-0.711L0.611,-0.711L0.611,-0.247C0.611,-0.191 0.6,-0.144 0.577,-0.106C0.554,-0.068 0.521,-0.039 0.479,-0.02C0.438,0 0.389,0.01 0.333,0.01C0.277,0.01 0.228,0 0.186,-0.02C0.144,-0.039 0.111,-0.068 0.087,-0.106C0.064,-0.144 0.052,-0.191 0.052,-0.247L0.052,-0.711L0.224,-0.711L0.224,-0.247C0.224,-0.217 0.228,-0.193 0.236,-0.175C0.245,-0.157 0.257,-0.143 0.273,-0.135C0.29,-0.126 0.309,-0.122 0.333,-0.122C0.356,-0.122 0.376,-0.126 0.392,-0.135C0.408,-0.143 0.42,-0.157 0.428,-0.175C0.436,-0.193 0.44,-0.217 0.44,-0.247L0.44,-0.711Z" style="fill-rule:nonzero;"/>
        </g>
        <g transform="matrix(12,0,0,12,156.025,26.7479)">
        </g>
    </g>
</svg>
