<?xml version="1.0" encoding="UTF-8" standalone="no"?>
<!DOCTYPE svg PUBLIC "-//W3C//DTD SVG 1.1//EN" "http://www.w3.org/Graphics/SVG/1.1/DTD/svg11.dtd">
<svg width="100%" height="100%" viewBox="0 0 86 88" version="1.1" xmlns="http://www.w3.org/2000/svg" xmlns:xlink="http://www.w3.org/1999/xlink" xml:space="preserve" xmlns:serif="http://www.serif.com/" style="fill-rule:evenodd;clip-rule:evenodd;stroke-linejoin:round;stroke-miterlimit:2;">
    <g transform="matrix(0.550459,0,0,0.550459,0.823215,-5.04727)">
        <g transform="matrix(-6.12323e-17,-1,-1,6.12323e-17,178.387,166.877)">
            <path d="M84.813,37.36L84.813,63.406C106.072,67.425 120.275,87.061 116.647,107.803C113.864,123.717 101.148,136.231 84.813,139.322L84.813,165.432C120.99,161.213 147.085,129.739 143.252,94.636C139.954,64.423 115.391,40.908 84.813,37.36Z" style="fill:rgb(80,91,161);fill-rule:nonzero;"/>
        </g>
        <g transform="matrix(-6.12323e-17,-1,-1,6.12323e-17,178.387,166.877)">
            <path d="M12.656,108.157C15.84,138.369 39.55,161.884 69.068,165.432L69.068,37.36C34.146,41.579 8.956,73.053 12.656,108.157Z" style="fill:rgb(80,91,161);fill-rule:nonzero;"/>
        </g>
    </g>
</svg>
