<svg version="1.2" xmlns="http://www.w3.org/2000/svg" viewBox="0 0 659 320" width="659" height="320"><style>.a{fill:#b3b8db}.b{fill:#fff}.c{fill:none;stroke:#000;stroke-width:.5}.d{fill:#020302}.e{fill:#ffb00d}.f{fill:#231d24}.g{fill:#ea1835}.h{fill:#f89f11;stroke:#231d24;stroke-width:.8}.i{fill:#fff;stroke:#231d24;stroke-width:.8}.j{fill:#fff;stroke:#000;stroke-width:.8}</style><path fill-rule="evenodd" class="a" d="m167 44.8c3.9-7.2 8.4-15.5 23.7-26.6 32.7-23.8 122-22.4 182.3-6.4 37.9 9 60.3 22 76 31.1 18.9 11 28.1 16.3 42.9 2.3 30.2-28.6 204.2-15.2 159.9 33.1-7.2 7.9-20.9 12.9-34.6 17.9-26 9.5-52.4 19-36.5 48.2 3.2 5.8 6.7 11.8 10.3 17.8 25.7 43 53.1 88.9-49 111-54.7 11.7-81.8-2.8-99.9-12.4-14.7-7.9-23.4-12.6-36.1 3.2-6.9 9.1-18.2 19.6-35.1 31.7-45.2 32.6-193.5 39.1-222.8-25-5.5-12.1-4.9-24.6-4.4-36.4 1-24.5 2-45.7-52.2-52.5-109.6-13.9-126.5-70.6-18-95 80.4-18.1 85.8-27.9 93.5-42zm180.4 144.6c-6.7-5.6-14.2-10.7-22.8-15.2 6.3 5.6 14.3 10.5 22.8 15.2z"/><path  d="m171.7 276.1c29.3 0 53.1-23.8 53.1-53.1 0-29.3-23.8-53.1-53.1-53.1-29.3 0-53.1 23.8-53.1 53.1 0 29.3 23.8 53.1 53.1 53.1z"/><path class="b" d="m125.8 249.7c-7 11.2-9.5 19.9-6.1 23.4 7 7.4 36.7-9.7 66.3-38 29.7-28.4 48-57.3 41-64.6-3.8-4-14.1-0.9-27.5 7.3l-4.7-2.6c19.2-12.6 34.9-17.8 40.5-11.9 8.8 9.2-11 42.6-44.4 74.5-33.3 32-67.5 50.3-76.4 41.1-4.9-5.2-1-17.7 9.1-33.3z"/><path  d="m121.3 282.2c-3.2 0-5.8-0.9-7.5-2.7-5.1-5.3-1.9-17.6 9-34.4 0.2-0.3 0.5-0.5 0.9-0.5 0.3 0.1 0.6 0.3 0.8 0.6l2.1 4.1c0.2 0.3 0.2 0.6 0 0.9-6.9 11.1-9.1 19.2-6.2 22.3 3 3.1 11.6 1 23.5-5.8 12.5-7.2 27.2-18.7 41.5-32.3 31.6-30.3 46.7-57.2 40.9-63.3-3.2-3.4-13.1-0.6-26.3 7.5-0.3 0.2-0.7 0.2-1 0l-4.7-2.6q-0.1 0-0.2-0.1-0.1-0.1-0.1-0.2-0.1-0.1-0.1-0.2-0.1-0.1-0.1-0.3c0-0.3 0.2-0.6 0.5-0.8 20.6-13.6 35.8-17.9 41.7-11.8 4.6 4.8 2.4 15.5-6.3 29.9-8.4 14.2-21.9 30.5-38.1 46-28 26.8-55.8 43.7-70.3 43.7zm2.2-34.7c-9.4 14.9-12.5 26.3-8.3 30.7 8.3 8.7 42.7-10.1 75.1-41.1 16-15.3 29.5-31.5 37.8-45.5 8-13.5 10.4-23.6 6.5-27.7-4.9-5-19.3-0.8-37.9 11.2l2.8 1.5c14.2-8.5 24.2-11 28.2-6.8 8.4 8.7-14.2 40.4-41 66-14.4 13.7-29.2 25.3-41.8 32.5-9.2 5.3-21.1 10.5-25.9 5.5-4.5-4.8 0.5-15.6 5.7-24.1z"/><path fill-rule="evenodd" d="m169.2 151.2c-3.1 0-5.6-2.5-5.6-5.6 0-3.1 2.5-5.7 5.6-5.7 3.1 0 5.7 2.6 5.7 5.7 0 3.1-2.6 5.6-5.7 5.6z"/><path fill-rule="evenodd" d="m368.8 264.9c-3.1 0-5.6-2.5-5.6-5.7 0-3.1 2.5-5.6 5.6-5.6 3.1 0 5.7 2.5 5.7 5.6 0 3.2-2.6 5.7-5.7 5.7z"/><path fill-rule="evenodd" class="c" d="m245.9 119.7c-26.6 0-48-21.5-48-48 0-26.6 21.4-48 48-48 26.5 0 47.9 21.4 47.9 48 0 26.5-21.4 48-47.9 48z"/><path fill-rule="evenodd" d="m480 105.3c-2.2 0-4-1.8-4-4 0-2.2 1.8-4 4-4 2.2 0 4 1.8 4 4 0 2.2-1.8 4-4 4z"/><path fill-rule="evenodd" d="m273.3 247.5c-3.1 0-5.6-2.5-5.6-5.6 0-3.1 2.5-5.7 5.6-5.7 3.2 0 5.7 2.6 5.7 5.7 0 3.1-2.5 5.6-5.7 5.6z"/><path fill-rule="evenodd" d="m36.4 116.1c-3.2 0-5.7-2.6-5.7-5.7 0-3.1 2.5-5.6 5.7-5.6 3.1 0 5.6 2.5 5.6 5.6 0 3.1-2.5 5.7-5.6 5.7z"/><path fill-rule="evenodd" d="m91.3 155.8c-1.1 0-2-0.9-2-2 0-1.1 0.9-2 2-2 1.1 0 2 0.9 2 2 0 1.1-0.9 2-2 2z"/><path fill-rule="evenodd" d="m290.9 269.5c-1.1 0-2-0.9-2-2 0-1.1 0.9-2 2-2 1.1 0 2 0.9 2 2 0 1.1-0.9 2-2 2z"/><path fill-rule="evenodd" d="m394.1 42.4c-1.1 0-2-0.8-2-2 0-1.1 0.9-2 2-2 1.1 0 2 0.9 2 2 0 1.2-0.9 2-2 2z"/><path fill-rule="evenodd" d="m639.9 61.7c-1.1 0-2-0.9-2-2 0-1.1 0.9-2 2-2 1.1 0 2 0.9 2 2 0 1.1-0.9 2-2 2z"/><path fill-rule="evenodd" d="m391.1 32.6c-1.7 0-3-1.3-3-3 0-1.6 1.3-3 3-3 1.6 0 3 1.4 3 3 0 1.7-1.4 3-3 3z"/><path fill-rule="evenodd" d="m613 63.7c-3.4 0-6-2.7-6-6 0-3.3 2.6-6 6-6 3.3 0 6 2.7 6 6 0 3.3-2.7 6-6 6z"/><path fill-rule="evenodd" d="m625 75.6c-2.2 0-4-1.8-4-4 0-2.2 1.8-4 4-4 2.2 0 4 1.8 4 4 0 2.2-1.8 4-4 4z"/><path fill-rule="evenodd" d="m584.1 221.4c-4.4 0-8-3.6-8-8 0-4.4 3.6-8 8-8 4.4 0 8 3.6 8 8 0 4.4-3.6 8-8 8z"/><path fill-rule="evenodd" d="m248.1 208.5c-2.2 0-4-1.8-4-4 0-2.2 1.8-4 4-4 2.2 0 4 1.8 4 4 0 2.2-1.8 4-4 4z"/><path fill-rule="evenodd" d="m576.1 241.9c-2.2 0-4-1.8-4-4 0-2.2 1.8-4 4-4 2.2 0 4 1.8 4 4 0 2.2-1.8 4-4 4z"/><path class="d" d="m474.4 39.3c-5.7-1.5-11.8-1.4-17.4 0.5l-85.1 26.9c0 0 26.5 14.8 49.6 40.3 3.3 3.9 9.3 3.6 12.6-0.2l44.6-54.1c3.9-4.6 1.6-11.8-4.3-13.4z"/><path class="e" d="m381 46.2c-55-30.2-106.7-41.5-152.8-36.4-40.6 4.4-62.9 18.5-62.9 18.5 0 0-3.8 26.4 12.9 64.4 18.7 42.3 52.6 82.6 105.6 116.2 35.9 22.8 70.2 29.7 88.6 31.7 8.2 1 16.3-3 20.5-10.2l59.4-98.9c4.3-7.2 4-16.3-0.8-23.1-10.9-15.1-33.3-41.7-70.5-62.2z"/><path class="d" d="m381.1 45.9c-45.4-25-89.6-37.6-131.4-37.6-7.3 0-14.5 0.3-21.5 1.1-40.2 4.4-62.8 18.5-63.1 18.6l-0.1 0.1v0.2c-0.1 0.3-3.8 26.9 12.9 64.5 20.1 45.5 55.7 84.7 105.7 116.4 36.4 23.1 71.2 29.8 88.8 31.7 0.8 0.1 1.6 0.2 2.4 0.2 7.5 0 14.6-4.1 18.4-10.5l59.4-98.9c4.4-7.4 4-16.6-0.9-23.6-10.2-14.2-32.9-41.5-70.6-62.2zm70.8 85.4l-59.4 98.9c-3.7 6.3-10.5 10.1-17.9 10.1-0.7 0-1.5 0-2.2-0.1-17.5-2-52.2-8.7-88.5-31.7-49.9-31.6-85.4-70.7-105.4-116-15.9-35.9-13.2-61.7-12.9-64 2-1.2 24.3-14.2 62.6-18.4 7-0.7 14.2-1.2 21.4-1.2 41.7 0 85.8 12.6 131.2 37.5 37.5 20.6 60.1 47.7 70.3 62.1 4.7 6.8 5 15.8 0.8 22.8z"/><path class="d" d="m250.3 41.6c-17.6 18.6-39.5 50.9-43.1 99.2h0.7c3.7-47.9 25.4-80.1 42.9-98.6 19-20.1 37.4-29 37.6-29.1l-0.3-0.7c-0.2 0.1-18.7 9-37.8 29.2zm41.7 18.1c-20.9 22.1-46.6 60.3-51 117.3l0.7 0.1c4.3-56.8 30-94.9 50.8-116.9 22.5-23.8 44.2-34.3 44.5-34.4l-0.3-0.7c-0.2 0.2-22.2 10.7-44.7 34.6zm46.1 25.9c-14 14.8-25.5 31.5-34.3 49.6-10.9 22.6-17.5 47.6-19.5 74.1l0.7 0.1c4.6-59.9 31.7-100.2 53.6-123.3 23.7-25.1 46.7-36.2 46.9-36.4l-0.2-0.6c-0.3 0.1-23.3 11.3-47.2 36.5z"/><path class="b" d="m446.4 106.1c-15.2-2.3-43 25.6-63.2 63.4-16.2 30.2-22.4 58-15.1 67.8 1.5 1.9 3.5 3.2 6.1 3.6 15.2 2.2 42.9-25.6 63.1-63.4 16.2-30.2 22.4-58.1 15.1-67.8-1.5-2-3.5-3.2-6-3.6z"/><path class="f" d="m446.4 105.7l-1.8-0.1c-15.7 0-42.3 27.4-61.7 63.7-16.3 30.3-22.4 58.3-15.1 68.2 1.5 2 3.7 3.4 6.3 3.7 0.6 0.1 1.2 0.2 1.8 0.2 15.8 0 42.3-27.4 61.7-63.7 16.3-30.4 22.5-58.3 15.1-68.2-1.6-2.1-3.7-3.3-6.3-3.8zm-9.4 71.6c-19.4 36.1-45.6 63.3-61.1 63.3-0.5 0-1.1 0-1.6-0.1-2.5-0.4-4.4-1.6-5.8-3.5-7.2-9.6-1-37.3 15.1-67.4 19.3-36 45.5-63.3 61-63.3 0.6 0 1.2 0.1 1.7 0.2 2.4 0.3 4.4 1.5 5.8 3.4 7.2 9.6 1 37.4-15.1 67.4z"/><path class="b" d="m443.7 113.2c-11.9-1.2-36.5 24.9-55 58.2-18.5 33.3-23.8 61.2-11.9 62.3 11.8 1.2 36.4-24.9 54.9-58.1 18.6-33.3 23.9-61.2 12-62.4z"/><path class="f" d="m443.7 112.8c-12.1-1.1-36.7 24.9-55.3 58.4-14.7 26.6-21.5 50.5-16.8 59.4 1.1 2.1 2.8 3.4 5.2 3.6 0.2 0 0.5 0.1 0.8 0.1 12.3 0 36.3-25.7 54.5-58.5 14.7-26.6 21.5-50.4 16.8-59.4-1.1-2.2-2.8-3.3-5.2-3.6zm-12.3 62.6c-18.1 32.7-42.9 59.1-54.6 58-2-0.2-3.6-1.2-4.6-3.1-4.5-8.6 2.4-32.7 16.9-58.6 17.7-32 41.9-58.1 53.8-58.1h0.8c2 0.3 3.5 1.3 4.6 3.2 4.4 8.5-2.4 32.6-16.9 58.6z"/><path class="f" d="m401.3 151.4c-4.3 6.3-8.4 12.9-12.3 20l-2.3 4.2 13.1 3 11.4-16.2-0.5-0.8z"/><path class="b" d="m409.8 161.3c-1.9-0.5-5.7 2.9-8.5 7.6-2.8 4.7-3.5 8.9-1.7 9.5 1.9 0.5 5.7-2.8 8.5-7.5 2.8-4.7 3.5-9 1.7-9.6z"/><path class="f" d="m409.9 161.1c-2.1-0.6-6 2.7-9 7.6-2.2 3.8-3.2 7.3-2.5 9.1 0.2 0.5 0.6 0.8 1.1 1 0.1 0.1 0.3 0.1 0.5 0.1 2.2 0 5.7-3.3 8.3-7.8 2.2-3.7 3.3-7.3 2.6-9-0.1-0.6-0.5-1-1-1zm-2.1 9.5c-3 5-6.6 7.8-8.1 7.5-0.3-0.1-0.5-0.3-0.6-0.6-0.6-1.5 0.4-4.9 2.5-8.4 2.8-4.6 6.1-7.4 7.8-7.4 0.1 0 0.2 0 0.3 0.1 0.3 0.1 0.5 0.3 0.5 0.6 0.6 1.4-0.4 4.8-2.4 8.2z"/><path class="d" d="m349.9 223.6c-33.6-7.7-59.3-23.8-59.3-23.8l17.6 87.5c1.2 5.8 4 11.1 8.1 15.5 4.2 4.4 11.5 2.9 13.8-2.7l25.6-65.3c1.8-4.7-0.9-10-5.8-11.2z"/><path class="d" d="m349.9 223.3c-33.1-7.7-58.9-23.6-59.1-23.8l-0.7-0.4 17.8 88.3c1.1 5.8 4 11.3 8.2 15.6 1.7 1.7 3.9 2.6 6.2 2.6 3.6 0 6.8-2.2 8.1-5.5l25.7-65.2c0.9-2.3 0.8-5-0.4-7.2-1.2-2.2-3.3-3.8-5.8-4.4zm5.5 11.4l-25.7 65.2c-1.2 3.1-4.1 5.1-7.4 5.1-2.2 0-4.2-0.9-5.7-2.4-4-4.3-6.8-9.6-8-15.3l-17.5-86.7c4.4 2.7 28.5 16.5 58.7 23.4 2.3 0.5 4.1 2 5.2 4 1.1 2.1 1.2 4.5 0.4 6.7z"/><path fill-rule="evenodd" d="m421.8 214.6c-13.4-8.4-17.4-26.1-9-39.6 8.5-13.4 26.2-17.4 39.6-8.9 13.4 8.4 70.7 59.6 62.3 73-8.4 13.4-79.5-16.1-92.9-24.5zm-9.8-40.1c-8.7 13.9-4.6 32.2 9.3 40.9 6.8 4.3 28 13.8 48.5 20.6 10.3 3.4 20.5 6.1 28.6 7.1 4.1 0.6 7.7 0.7 10.6 0.2 2.9-0.5 5.3-1.6 6.6-3.6 1.2-2.1 1.2-4.7 0.4-7.5-0.9-2.8-2.5-6-4.7-9.5-4.5-6.9-11.3-14.9-18.8-22.7-15-15.5-32.8-30.5-39.6-34.8-13.9-8.7-32.2-4.6-40.9 9.3z"/><path class="g" d="m452.4 166.1c-13.4-8.5-31.1-4.5-39.6 9-8.4 13.4-4.4 31.1 9 39.5 13.4 8.4 84.5 37.9 92.9 24.5 8.4-13.4-48.9-64.6-62.3-73z"/><path class="h" d="m425.8 203.9c2 1.3 4.1 2.1 6.4 2.5 2.3 0.4 4.6 0.3 6.9-0.2 2.2-0.5 4.3-1.5 6.2-2.8 1.9-1.3 3.5-3 4.7-5 5.2-8.2 2.7-19-5.5-24.1-8.2-5.2-19-2.7-24.2 5.5-5.1 8.2-2.7 19 5.5 24.1z"/><path class="i" d="m432.3 177.7c-3.8-2.4-8.8-1.3-11.2 2.5-2.4 3.8-1.3 8.8 2.5 11.2 3.8 2.4 8.8 1.3 11.2-2.5 2.4-3.8 1.3-8.8-2.5-11.2z"/><path class="j" d="m570.1 172c12.2-5.2 21.7-15.5 25.7-28.2 1.3-4.3 2.1-8.9 2.1-13.7 0-4.9-0.8-9.7-2.3-14.2-6-18.1-23-31.1-43.1-31.1q-0.9 0-1.9 0c-13 0.5-24.6 6.6-32.6 15.8q-2.6 3.1-4.6 6.6-2.1 3.4-3.5 7.2-1.4 3.8-2.1 7.7-0.7 4-0.7 8 0 1 0.1 1.9 0 0.9 0.1 1.8 0 1 0.1 1.9 0.2 0.9 0.3 1.8l-0.4 0.1 0.4-0.1c3.5 21.6 22.2 38 44.8 38q2.3 0 4.5-0.2 2.3-0.2 4.5-0.7 2.2-0.4 4.4-1.1 2.1-0.7 4.2-1.5z"/><path  d="m596 115.8c-1.8 1.5-4.1 2.4-6.4 2.2-2.2-0.2-4.3-1.3-5.9-2.8-1.1-0.9-2.5-2.2-3.9-1.7-1.1 0.4-1.6 1.7-1.5 2.9 0 1.2 0.4 2.4 0.5 3.6 0 2.6-2.1 5.2-4.8 5.5-1.9 0.2-3.9-0.6-5.6 0.2-1.7 0.7-2.5 2.7-2.7 4.6-0.2 1.8 0 3.7-0.3 5.5-0.5 2.1-1.8 4-3.7 4.9-1.9 0.8-4.4 0.4-5.7-1.3-1.7-2.1-1-5.2 0-7.6 1.2-2.9 2.6-5.6 4.3-8.1 1.2-1.7 2.5-3.5 2.9-5.5 0.4-2.1-0.4-4.6-2.4-5.2-2.3-0.8-5 1.2-7.1 0.1-1.3-0.7-1.9-2.2-2.3-3.6l-2.4-7.1c-0.8-2.4-1.6-4.9-1.3-7.5 0.5-3.3 2.2-6.4 2.8-9.8l0.1-0.7q0.3 0 0.5 0 0.2 0 0.5 0 0.2 0 0.4 0 0.3 0 0.5 0c20.3 0 37.4 13.1 43.5 31.4zm0.2 28.1c-4.1 12.8-13.6 23.2-25.9 28.4l-1.7-10.1c-0.2-1.7-0.4-3.6 0.9-4.7 1-0.9 2.6-0.8 4-0.4 1.3 0.4 2.7 0.9 4 0.5 1.6-0.4 2.6-1.8 3.2-3.3 0.5-1.5 0.7-3.1 1.2-4.6 1.1-3.1 3.7-5.5 6.8-6.4 2.3-0.7 5.4-0.7 7.5 0.6zm-72.8-35.9c-0.6 1.8-2.5 2.7-3.4 4.3-1 1.7-0.6 3.8-1.4 5.6-0.7 1.9-2.4 3.1-3.3 4.8-1 1.9-1 4.1-0.7 6.1 0.2 2.1 0.7 4.2 0.5 6.3-0.1 0.9-0.4 1.9-1.1 2.3-1 0.6-2.2 0.1-3.3-0.1-0.9-0.2-2.2 0.1-3.4 0.3q-0.1-0.9-0.2-1.9-0.2-0.9-0.2-1.8-0.1-1-0.1-1.9-0.1-0.9-0.1-1.9 0-4 0.7-8 0.7-4 2.1-7.8 1.5-3.8 3.5-7.4 2.1-3.5 4.7-6.5c1.6 0.5 2.9 1.5 4.1 2.7 1.2 1.3 2.2 3.2 1.6 4.9z"/></svg>